# Blender 4.0.2
# www.blender.org
mtllib arrow.mtl
o Plane
v -0.299000 -0.048817 0.798682
v 0.299000 -0.048817 0.798682
v -0.299000 -0.048817 -0.200000
v 0.299000 -0.048817 -0.200000
v -0.400001 -0.048817 -0.203367
v 0.400001 -0.048817 -0.200000
v 0.000000 -0.048817 -0.802636
v 0.604002 -0.048817 -0.201684
v -0.593902 -0.048817 -0.203367
v -0.299000 0.052184 -0.200000
v -0.299000 0.052184 0.798682
v 0.299000 0.052184 0.798682
v 0.299000 0.052184 -0.200000
v -0.593902 0.052184 -0.203367
v -0.400001 0.052184 -0.203367
v 0.400001 0.052184 -0.200000
v 0.604002 0.052184 -0.201684
v 0.000000 0.052184 -0.802636
vn -0.0000 -1.0000 -0.0000
vn -0.0000 1.0000 -0.0000
vn -1.0000 -0.0000 -0.0000
vn 0.7053 -0.0000 -0.7089
vn -0.0000 -0.0000 1.0000
vn 0.0083 -0.0000 1.0000
vn -0.0333 -0.0000 0.9994
vn 1.0000 -0.0000 -0.0000
vn -0.7103 -0.0000 -0.7039
vt 0.000000 1.000000
vt 1.000000 0.000000
vt 0.000000 0.000000
vt 0.500000 1.000000
vt 1.000000 1.000000
vt 0.750000 1.000000
vt 0.250000 1.000000
s 0
usemtl front
f 12/2/2 10/1/2 11/3/2
f 17/6/2 18/4/2 15/1/2
f 12/2/2 13/5/2 10/1/2
f 15/1/2 10/1/2 13/5/2
f 13/5/2 16/5/2 17/6/2
f 18/4/2 14/7/2 15/1/2
f 15/1/2 13/5/2 17/6/2
usemtl back
f 3/1/1 2/2/1 1/3/1
f 5/1/1 7/4/1 6/5/1
f 3/1/1 4/5/1 2/2/1
f 4/5/1 3/1/1 5/1/1
f 5/1/1 9/7/1 7/4/1
f 7/4/1 8/6/1 6/5/1
f 6/5/1 4/5/1 5/1/1
usemtl side
f 1/3/3 10/1/3 3/1/3
f 7/4/4 17/6/4 8/6/4
f 5/1/5 14/7/5 9/7/5
f 2/2/5 11/3/5 1/3/5
f 8/6/6 16/5/6 6/5/6
f 3/1/7 15/1/7 5/1/7
f 4/5/8 12/2/8 2/2/8
f 9/7/9 18/4/9 7/4/9
f 6/5/5 13/5/5 4/5/5
f 1/3/3 11/3/3 10/1/3
f 7/4/4 18/4/4 17/6/4
f 5/1/5 15/1/5 14/7/5
f 2/2/5 12/2/5 11/3/5
f 8/6/6 17/6/6 16/5/6
f 3/1/7 10/1/7 15/1/7
f 4/5/8 13/5/8 12/2/8
f 9/7/9 14/7/9 18/4/9
f 6/5/5 16/5/5 13/5/5
