<?xml version="1.0" encoding="UTF-8" standalone="no"?>
<svg
   id="Layer_1"
   data-name="Layer 1"
   width="13.56568cm"
   height="5.3834081cm"
   viewBox="0 0 384.53769 152.55635"
   version="1.1"
   sodipodi:docname="Babo1 Glove Strip v2.6 Tesselated.svg"
   inkscape:version="1.2.1 (9c6d41e4, 2022-07-14)"
   xmlns:inkscape="http://www.inkscape.org/namespaces/inkscape"
   xmlns:sodipodi="http://sodipodi.sourceforge.net/DTD/sodipodi-0.dtd"
   xmlns="http://www.w3.org/2000/svg"
   xmlns:svg="http://www.w3.org/2000/svg">
  <sodipodi:namedview
     id="namedview201"
     pagecolor="#ffffff"
     bordercolor="#666666"
     borderopacity="1.0"
     inkscape:showpageshadow="2"
     inkscape:pageopacity="0.0"
     inkscape:pagecheckerboard="0"
     inkscape:deskcolor="#d1d1d1"
     inkscape:document-units="cm"
     showgrid="false"
     inkscape:zoom="2.0024104"
     inkscape:cx="324.60878"
     inkscape:cy="101.62752"
     inkscape:window-width="2256"
     inkscape:window-height="1269"
     inkscape:window-x="0"
     inkscape:window-y="25"
     inkscape:window-maximized="0"
     inkscape:current-layer="Layer_1" />
  <defs
     id="defs184">
    <style
       id="style182">
      .cls-1 {
        fill: none;
        stroke: #000;
        stroke-miterlimit: 10;
        stroke-width: 0.1px;
      }
    </style>
  </defs>
  <g
     id="g192"
     style="stroke:#ff0000;stroke-opacity:1"
     transform="rotate(90,192.27175,192.2667)">
    <path
       class="cls-1"
       d="M 101.37,369.38 A 66.59,66.59 0 0 0 113.5,331 l 0.27,-254.79 c 0,0 0,-17.72 -17.72,-17.72 -17.72,0 -17.72,17.74 -17.72,17.74 L 78,309.6 c 0,0 0,21.26 -21.26,21.26 -21.26,0 -21.31,-21.26 -21.31,-21.26 L 35.7,33.71 C 35.7,33.71 35.7,16 18.16,16 0.27,16 0.27,33.71 0.27,33.71 L 0,331.13 a 66.54,66.54 0 0 0 12,38.19 l 8.33,11.9 a 7.66,7.66 0 0 0 10.73,1.84 v 0 A 7.67,7.67 0 0 0 33,372.5 l -9.8,-14.26 a 51.74,51.74 0 0 1 -9,-29.2 L 14.47,33.71 A 3.47,3.47 0 0 1 18,30.17 c 3.54,0 3.54,3.54 3.54,3.54 0,0 -0.32,196.7 -0.34,269 a 163.68,163.68 0 0 0 1.59,22.77 45.91,45.91 0 0 0 1.3,6 l 5,17.87 c 1.64,5.83 7,16.95 13,16.95 h 29.16 c 6.06,0 11.38,-11.13 13,-17 l 5,-17.87 a 44.46,44.46 0 0 0 1.29,-6 163.45,163.45 0 0 0 1.57,-22.54 L 92.49,76.24 c 0,0 0,-3.54 3.54,-3.54 3.54,0 3.54,3.54 3.54,3.54 L 99.21,329 a 51.74,51.74 0 0 1 -9,29.2 l -9.79,14.3 a 7.67,7.67 0 0 0 1.87,10.56 v 0 A 7.67,7.67 0 0 0 93,381.25 Z"
       id="path188"
       style="stroke:#ff0000;stroke-opacity:1" />
    <path
       class="cls-1"
       d="M 51.12,15.17 A 66.58,66.58 0 0 0 39,53.52 l -0.27,254.8 c 0,0 0,17.68 17.72,17.68 17.72,0 17.71,-17.71 17.71,-17.71 L 74.54,75 c 0,0 0,-21.26 21.26,-21.26 21.26,0 21.26,21.26 21.26,21.26 l -0.27,275.89 c 0,0 0,17.71 17.54,17.71 17.9,0 17.9,-17.71 17.9,-17.71 L 152.5,53.46 a 66.61,66.61 0 0 0 -12,-38.18 L 132.17,3.38 A 7.66,7.66 0 0 0 121.4,1.49 v 0 a 7.66,7.66 0 0 0 -1.87,10.56 l 9.76,14.26 a 51.74,51.74 0 0 1 9,29.2 l -0.27,295.33 c 0,0 0,3.54 -3.54,3.54 -3.54,0 -3.54,-3.54 -3.54,-3.54 0,0 0.32,-196.71 0.33,-269 a 163.57,163.57 0 0 0 -1.59,-22.77 45.91,45.91 0 0 0 -1.3,-6 l -5,-17.87 c -1.64,-5.83 -7,-17 -13,-17 H 81.25 c -6.07,0 -11.39,11.13 -13,17 l -5,17.87 a 47.71,47.71 0 0 0 -1.29,6 163.34,163.34 0 0 0 -1.56,22.54 L 60,308.32 c 0,0 0,3.54 -3.54,3.54 a 3.47,3.47 0 0 1 -3.55,-3.54 L 53.29,55.51 a 51.74,51.74 0 0 1 9,-29.2 L 72.06,12.05 A 7.67,7.67 0 0 0 70.21,1.49 v 0 A 7.67,7.67 0 0 0 59.47,3.3 Z"
       id="path190"
       style="stroke:#ff0000;stroke-opacity:1" />
  </g>
</svg>
