<svg id="Layer_1" data-name="Layer 1" xmlns="http://www.w3.org/2000/svg" width="11cm" height="13.57cm" viewBox="0 0 311.81 384.55">
  <defs>
    <style>
      .cls-1 {
        fill: none;
        stroke: #000;
        stroke-miterlimit: 10;
        stroke-width: 0.1px;
      }
    </style>
  </defs>
  <rect class="cls-1" x="201.94" y="23.08" width="28.35" height="28.35"/>
  <g>
    <path class="cls-1" d="M101.37,369.38A66.59,66.59,0,0,0,113.5,331l.27-254.79s0-17.72-17.72-17.72S78.33,76.23,78.33,76.23L78,309.6s0,21.26-21.26,21.26S35.43,309.6,35.43,309.6L35.7,33.71S35.7,16,18.16,16C.27,16,.27,33.71.27,33.71L0,331.13a66.54,66.54,0,0,0,12,38.19l8.33,11.9a7.66,7.66,0,0,0,10.73,1.84h0A7.67,7.67,0,0,0,33,372.5L23.2,358.24a51.74,51.74,0,0,1-9-29.2l.27-295.33A3.47,3.47,0,0,1,18,30.17c3.54,0,3.54,3.54,3.54,3.54s-.32,196.7-.34,269a163.68,163.68,0,0,0,1.59,22.77,45.91,45.91,0,0,0,1.3,6l5,17.87c1.64,5.83,7,16.95,13,16.95H71.25c6.06,0,11.38-11.13,13-17l5-17.87a44.46,44.46,0,0,0,1.29-6,163.45,163.45,0,0,0,1.57-22.54l.38-226.65s0-3.54,3.54-3.54,3.54,3.54,3.54,3.54L99.21,329a51.74,51.74,0,0,1-9,29.2L80.42,372.5a7.67,7.67,0,0,0,1.87,10.56h0A7.67,7.67,0,0,0,93,381.25Z"/>
    <path class="cls-1" d="M51.12,15.17A66.58,66.58,0,0,0,39,53.52l-.27,254.8S38.73,326,56.45,326s17.71-17.71,17.71-17.71L74.54,75s0-21.26,21.26-21.26S117.06,75,117.06,75l-.27,275.89s0,17.71,17.54,17.71c17.9,0,17.9-17.71,17.9-17.71l.27-297.43a66.61,66.61,0,0,0-12-38.18l-8.33-11.9A7.66,7.66,0,0,0,121.4,1.49h0a7.66,7.66,0,0,0-1.87,10.56l9.76,14.26a51.74,51.74,0,0,1,9,29.2l-.27,295.33s0,3.54-3.54,3.54-3.54-3.54-3.54-3.54.32-196.71.33-269a163.57,163.57,0,0,0-1.59-22.77,45.91,45.91,0,0,0-1.3-6l-5-17.87c-1.64-5.83-7-17-13-17H81.25c-6.07,0-11.39,11.13-13,17l-5,17.87a47.71,47.71,0,0,0-1.29,6,163.34,163.34,0,0,0-1.56,22.54L60,308.32s0,3.54-3.54,3.54a3.47,3.47,0,0,1-3.55-3.54l.38-252.81a51.74,51.74,0,0,1,9-29.2l9.77-14.26A7.67,7.67,0,0,0,70.21,1.49h0A7.67,7.67,0,0,0,59.47,3.3Z"/>
  </g>
  <g>
    <path class="cls-1" d="M210.44,369.43a66.59,66.59,0,0,1-12.13-38.36L198,76.28s0-17.72,17.72-17.72,17.72,17.72,17.72,17.72l.38,233.37s0,21.26,21.26,21.26,21.26-21.26,21.26-21.26l-.27-275.89S276.11,16,293.65,16c17.89,0,17.89,17.72,17.89,17.72l.27,297.42a66.54,66.54,0,0,1-12,38.19l-8.33,11.9a7.66,7.66,0,0,1-10.73,1.84h0a7.66,7.66,0,0,1-1.86-10.56l9.76-14.26a51.74,51.74,0,0,0,9-29.2l-.27-295.33s0-3.54-3.54-3.54a3.47,3.47,0,0,0-3.55,3.54s.32,196.7.34,269A163.68,163.68,0,0,1,289,325.5a45.91,45.91,0,0,1-1.3,6l-5,17.87c-1.64,5.83-7,17-13,17H240.56c-6.06,0-11.38-11.13-13-17l-5-17.87a44.46,44.46,0,0,1-1.29-6,163.44,163.44,0,0,1-1.56-22.54L219.3,76.28s0-3.54-3.54-3.54-3.54,3.54-3.54,3.54l.38,252.81a51.74,51.74,0,0,0,9,29.2l9.76,14.26a7.66,7.66,0,0,1-1.87,10.56h0a7.67,7.67,0,0,1-10.72-1.82Z"/>
    <path class="cls-1" d="M260.69,15.22a66.58,66.58,0,0,1,12.12,38.35l.27,254.8s0,17.71-17.71,17.71-17.72-17.71-17.72-17.71L237.27,75s0-21.26-21.26-21.26S194.75,75,194.75,75L195,350.89s0,17.71-17.54,17.71c-17.9,0-17.9-17.71-17.9-17.71l-.26-297.43a66.6,66.6,0,0,1,12-38.18l8.33-11.9a7.66,7.66,0,0,1,10.73-1.84h0a7.65,7.65,0,0,1,1.87,10.56l-9.76,14.26a51.74,51.74,0,0,0-9,29.2l.27,295.33s0,3.54,3.54,3.54,3.54-3.54,3.54-3.54-.32-196.71-.33-269a163.57,163.57,0,0,1,1.59-22.77,45.91,45.91,0,0,1,1.3-6l5-17.87c1.64-5.83,7-16.95,13-16.95h29.12c6.07,0,11.39,11.13,13,17l5,17.87a47.71,47.71,0,0,1,1.29,6,163.34,163.34,0,0,1,1.56,22.54l.38,226.65a3.47,3.47,0,0,0,3.55,3.54c3.54,0,3.54-3.54,3.54-3.54l-.38-252.81a51.74,51.74,0,0,0-9-29.2L239.74,12.1a7.65,7.65,0,0,1,1.87-10.56h0a7.67,7.67,0,0,1,10.72,1.82Z"/>
  </g>
</svg>
