<?xml version="1.0" encoding="UTF-8" standalone="no"?>
<svg
   id="Layer_1"
   data-name="Layer 1"
   width="10.894335cm"
   height="4.0196481cm"
   viewBox="0 0 308.99802 113.9515"
   version="1.1"
   sodipodi:docname="Babo1 Glove Strip v2.4.svg"
   inkscape:version="1.2.1 (9c6d41e4, 2022-07-14)"
   xmlns:inkscape="http://www.inkscape.org/namespaces/inkscape"
   xmlns:sodipodi="http://sodipodi.sourceforge.net/DTD/sodipodi-0.dtd"
   xmlns="http://www.w3.org/2000/svg"
   xmlns:svg="http://www.w3.org/2000/svg">
  <sodipodi:namedview
     id="namedview9812"
     pagecolor="#ffffff"
     bordercolor="#666666"
     borderopacity="1.0"
     inkscape:showpageshadow="2"
     inkscape:pageopacity="0.0"
     inkscape:pagecheckerboard="0"
     inkscape:deskcolor="#d1d1d1"
     inkscape:document-units="cm"
     showgrid="false"
     inkscape:zoom="2.4929091"
     inkscape:cx="175.29721"
     inkscape:cy="76.015607"
     inkscape:window-width="2256"
     inkscape:window-height="1269"
     inkscape:window-x="0"
     inkscape:window-y="25"
     inkscape:window-maximized="0"
     inkscape:current-layer="Layer_1" />
  <defs
     id="defs9803">
    <style
       id="style9801">
      .cls-1 {
        fill: none;
        stroke: #000;
        stroke-miterlimit: 10;
        stroke-width: 0.25px;
      }
    </style>
  </defs>
  <path
     class="cls-1"
     d="m 15.23302,101.41568 a 66.58,66.58 0 0 0 38.36,12.12 l 223.4,0.27 c 0,0 17.71,0 17.71,-17.719999 0,-17.72 -17.71,-17.71 -17.71,-17.71 l -202,-0.38 c 0,0 -21.26,0 -21.26,-21.26 0,-21.26 21.26,-21.26 21.26,-21.26 l 216.14,0.27 c 0,0 17.73,0 17.74,-17.54 0,-17.89999819 -17.72,-17.89999819 -17.72,-17.89999819 l -237.67,-0.26 a 66.6,66.6 0 0 0 -38.19,11.99999819 l -11.9,8.33 a 7.66,7.66 0 0 0 -1.84,10.73 v 0 a 7.66,7.66 0 0 0 10.56,1.87 l 14.26,-9.76 a 51.74,51.74 0 0 1 29.2,-9 l 235.58,0.27 c 0,0 3.54,0 3.54,3.54 0,3.54 -3.54,3.54 -3.54,3.54 0,0 -137,-0.32 -209.22,-0.33 a 163.68,163.68 0 0 0 -22.77,1.59 45.91,45.91 0 0 0 -6,1.3 l -17.87,5 c -5.83,1.64 -16.95,7 -16.95,13 v 29.16 c 0,6.07 11.13,11.39 17,13 l 17.87,5 a 47.71,47.71 0 0 0 6,1.29 163.34,163.34 0 0 0 22.54,1.56 l 195.24,0.41 c 0,0 3.54,0 3.54,3.54 a 3.47,3.47 0 0 1 -3.54,3.55 l -221.41,-0.38 a 51.74,51.74 0 0 1 -29.2,-9 l -14.26,-9.76 a 7.66,7.66 0 0 0 -10.56,1.86 v 0 a 7.67,7.67 0 0 0 1.82,10.72 z"
     id="path9807"
     style="stroke:#ff0000;stroke-opacity:1" />
</svg>
