<?xml version="1.0" encoding="UTF-8" standalone="no"?>
<!-- Created with Inkscape (http://www.inkscape.org/) -->

<svg
   width="130.59158mm"
   height="18.000004mm"
   viewBox="0 0 130.59158 18.000004"
   version="1.1"
   id="svg3921"
   xml:space="preserve"
   inkscape:version="1.2.1 (9c6d41e4, 2022-07-14)"
   sodipodi:docname="beep.svg"
   xmlns:inkscape="http://www.inkscape.org/namespaces/inkscape"
   xmlns:sodipodi="http://sodipodi.sourceforge.net/DTD/sodipodi-0.dtd"
   xmlns="http://www.w3.org/2000/svg"
   xmlns:svg="http://www.w3.org/2000/svg"><sodipodi:namedview
     id="namedview3923"
     pagecolor="#ffffff"
     bordercolor="#666666"
     borderopacity="1.0"
     inkscape:showpageshadow="2"
     inkscape:pageopacity="0.0"
     inkscape:pagecheckerboard="0"
     inkscape:deskcolor="#d1d1d1"
     inkscape:document-units="mm"
     showgrid="false"
     inkscape:zoom="0.914906"
     inkscape:cx="169.41631"
     inkscape:cy="53.01091"
     inkscape:window-width="2256"
     inkscape:window-height="1269"
     inkscape:window-x="0"
     inkscape:window-y="25"
     inkscape:window-maximized="0"
     inkscape:current-layer="layer1" /><defs
     id="defs3918" /><g
     inkscape:label="Layer 1"
     inkscape:groupmode="layer"
     id="layer1"
     transform="translate(-38.178578,-134.52299)"><path
       style="fill:none;fill-opacity:1;stroke:#ff0000;stroke-width:0.0796385;stroke-opacity:1"
       d="m 168.69343,144.78237 c -0.0296,0.0296 -2.34146,0.0539 -5.13744,0.0539 h -5.08357 v 3.82264 3.82264 h -1.27421 -1.27421 v -8.95931 -8.95931 h 5.09684 c 4.79989,0 5.09703,0.008 5.09991,0.13937 0.002,0.0767 0.0107,0.64109 0.0199,1.2543 l 0.0169,1.11494 1.27421,0.0399 1.27421,0.0398 0.0206,3.78869 c 0.0114,2.08379 -0.004,3.81293 -0.0332,3.84256 z m -6.35966,-7.67106 h -3.86356 l 0.021,2.56833 0.021,2.56833 3.743,0.0208 c 2.05865,0.0114 3.7878,0.004 3.84255,-0.0174 0.0768,-0.0294 0.0995,-0.62179 0.0995,-2.58909 v -2.55092 z m -9.05727,12.78347 c -0.055,0.0202 -0.63759,0.0461 -1.2946,0.0574 l -1.19458,0.0207 -0.005,1.23439 -0.005,1.23439 -3.83693,0.0206 -3.83693,0.0207 v -1.27498 -1.27497 h -1.27422 -1.27421 v -6.41088 -6.41089 h 1.27421 1.27422 v -1.27421 -1.27422 h 3.82264 3.82263 v 1.27422 1.27421 h -3.82263 -3.82264 v 6.41089 6.41088 h 3.86245 3.86246 v -6.4129 -6.41291 l 1.2543,0.0219 1.25431,0.0219 0.0204,6.35347 c 0.0162,5.04122 0,6.36105 -0.0796,6.39018 z m -15.29055,0 c -0.055,0.0202 -0.63759,0.0461 -1.2946,0.0574 l -1.19458,0.0207 -0.005,1.23439 -0.005,1.23439 -3.83693,0.0206 -3.83693,0.0207 v -1.27498 -1.27497 h -1.27422 -1.27421 v -6.41088 -6.41089 h 1.27421 1.27422 v -1.27421 -1.27422 h 3.82264 3.82263 v 1.27422 1.27421 h -3.82263 -3.82264 v 6.41089 6.41088 h 3.86245 3.86246 v -6.4129 -6.41291 l 1.2543,0.0219 1.25431,0.0219 0.0204,6.35347 c 0.0162,5.04122 0,6.36105 -0.0796,6.39018 z m -16.54534,0.0383 h -1.27421 v -2.54843 -2.54843 h 1.27421 1.27422 v 2.54843 2.54843 z m 10e-4,-7.72492 h -1.27533 v -2.55045 -2.55044 l 1.2543,0.0219 1.2543,0.0219 0.021,2.52852 0.021,2.52851 z m -6.43191,10.27341 -5.11676,-7e-5 v -8.95931 -8.95931 h 5.09101 c 4.64844,0 5.09325,0.0113 5.11676,0.13021 0.0142,0.0716 0.0149,0.645 0.002,1.2742 l -0.024,1.14402 h -3.81965 -3.81965 l 0.021,2.56833 c 0.0205,2.50389 0.025,2.56863 0.18029,2.57978 0.0876,0.006 1.79883,0.0152 3.80273,0.0199 l 3.64345,0.008 v 1.2742 1.27422 h -3.82263 -3.82264 v 2.54842 2.54843 h 3.82264 c 2.10245,0 3.82304,0.0269 3.82354,0.0597 6e-4,0.0329 0.009,0.60628 0.0199,1.27427 l 0.019,1.21455 z m -17.991702,-7.69844 c -0.0292,0.0292 -2.3407,0.0531 -5.136668,0.0531 h -5.083578 v 3.82264 3.82264 h -1.274215 -1.274209 v -8.95931 -8.95931 l 5.116761,5e-5 5.116754,4e-5 v 1.25426 1.25426 l 1.294122,0.0219 1.294123,0.0219 v 3.8074 c 0,2.09406 -0.0239,3.83128 -0.0531,3.86048 z m -6.358895,-7.67182 h -3.863561 l 0.02101,2.56833 0.02101,2.56834 3.743001,0.0208 c 2.05865,0.0114 3.7878,0.004 3.842551,-0.0174 0.07677,-0.0294 0.09955,-0.62178 0.09955,-2.58908 v -2.55092 z M 75.369659,152.4815 h -6.410884 v -8.9593 -8.95931 h 6.410884 6.410877 v 1.27421 1.27422 h -5.137769 -5.137773 l 0.02101,2.56833 0.02101,2.56833 3.822641,0.0206 3.822633,0.0206 -0.01565,1.25356 -0.01565,1.25356 -3.826877,0.0207 -3.826876,0.0206 v 2.54766 2.54767 h 5.13667 5.136668 v 1.27421 1.27421 z m -15.370191,0 h -6.410882 v -8.9593 -8.95931 h 6.410882 6.410882 v 1.27421 1.27422 h -5.137772 -5.137773 l 0.02101,2.56833 0.02101,2.56833 3.822638,0.0207 3.822638,0.0207 -0.01572,1.1739 c -0.0086,0.64564 -0.0176,1.21869 -0.01991,1.27344 -0.0033,0.0782 -0.824048,0.0995 -3.82683,0.0995 h -3.822638 v 2.54842 2.54843 h 5.13667 5.136669 v 1.27421 1.27421 z m -9.0124,-2.60151 c -0.0292,0.0292 -0.602595,0.0531 -1.274212,0.0531 h -1.221121 v -2.54842 -2.54842 h 1.274213 1.274213 v 2.49533 c 0,1.37243 -0.02389,2.51922 -0.05309,2.54842 z m -1.220001,-7.67183 h -1.275332 v -2.55044 -2.55045 l 1.254303,0.0219 1.254304,0.0219 0.02103,2.52851 0.02103,2.52852 z m -1.335817,9.09868 -0.02341,1.17466 h -5.094721 -5.094722 v -8.9593 -8.95931 h 5.096851 c 2.803268,0 5.098307,0.0268 5.100087,0.0597 0.0018,0.0329 0.0058,0.59729 0.0089,1.25431 l 0.0057,1.19457 -3.83265,0.0207 -3.832649,0.0206 0.02101,2.56757 0.02101,2.56757 3.798646,0.0207 3.798645,0.0207 0.02399,1.14324 c 0.0132,0.62879 0.01241,1.20183 -0.0017,1.27344 -0.0234,0.11834 -0.373461,0.1302 -3.842543,0.1302 h -3.816798 v 2.54766 2.54767 l 3.835923,0.0206 c 2.483652,0.0134 3.838742,0.0488 3.84392,0.10031 0.0044,0.0438 -0.0025,0.60824 -0.01542,1.25431 z"
       id="path4054" /></g></svg>
